<svg id="svg" xmlns="http://www.w3.org/2000/svg" xmlns:xlink="http://www.w3.org/1999/xlink" width="400" height="104.24710424710425" viewBox="0, 0, 400,104.24710424710425"><g id="svgg"><path id="path0" d="M-0.000 51.478 L 0.000 102.960 13.256 102.960 L 26.512 102.960 26.512 73.102 C 26.512 56.060,26.610 43.243,26.739 43.243 C 27.115 43.243,30.586 52.357,47.864 98.713 L 49.111 102.059 57.186 102.127 L 65.260 102.195 66.586 98.652 C 67.315 96.704,72.044 84.163,77.095 70.785 C 82.146 57.407,86.507 45.853,86.787 45.109 C 87.067 44.366,87.403 43.758,87.535 43.758 C 87.680 43.758,87.773 55.324,87.773 73.359 L 87.773 102.960 101.158 102.960 L 114.543 102.960 114.543 82.740 L 114.543 62.520 113.555 61.054 C 101.688 43.452,99.844 24.283,108.593 9.470 C 109.890 7.275,112.994 3.102,113.993 2.212 C 114.349 1.895,114.543 1.416,114.543 0.856 L 114.543 -0.011 97.705 0.059 C 88.444 0.097,80.787 0.208,80.691 0.304 C 80.594 0.401,75.437 13.296,69.231 28.959 C 58.137 56.956,57.630 58.173,57.047 58.172 C 56.887 58.172,51.586 45.112,45.267 29.150 L 33.778 0.129 16.889 0.062 L -0.000 -0.004 -0.000 51.478 M222.651 0.715 C 222.651 1.294,223.080 2.006,224.334 3.513 C 237.579 19.422,237.322 40.759,223.640 61.054 L 222.651 62.520 222.651 82.740 L 222.651 102.960 236.680 102.960 L 250.708 102.960 250.708 85.972 L 250.708 68.983 255.441 68.983 L 260.173 68.983 269.147 85.962 L 278.121 102.942 293.372 102.951 C 301.760 102.956,308.623 102.894,308.623 102.813 C 308.623 102.732,306.091 98.012,302.996 92.324 C 298.207 83.521,289.294 67.043,288.324 65.199 C 288.051 64.680,288.129 64.573,289.251 63.927 C 300.630 57.377,305.365 48.164,304.945 33.387 C 304.496 17.564,296.886 7.074,282.410 2.320 C 275.715 0.122,277.013 0.207,248.198 0.064 L 222.651 -0.063 222.651 0.715 M308.366 3.982 L 308.366 7.963 309.491 9.709 C 318.618 23.857,318.673 45.603,309.618 59.743 L 308.366 61.699 308.366 70.314 L 308.366 78.930 314.865 90.938 L 321.364 102.946 328.636 102.953 L 335.907 102.960 335.907 89.692 L 335.907 76.423 339.753 71.352 C 341.868 68.563,343.878 65.941,344.219 65.527 L 344.838 64.773 347.031 68.487 C 349.929 73.397,364.831 98.800,365.969 100.772 C 366.459 101.622,367.042 102.461,367.263 102.638 C 367.853 103.109,400.113 103.109,399.930 102.638 C 399.861 102.461,392.573 90.444,383.733 75.933 C 374.893 61.422,367.165 48.713,366.559 47.690 L 365.458 45.830 366.729 44.086 C 367.428 43.127,375.026 32.870,383.614 21.293 C 392.202 9.715,399.228 0.188,399.228 0.121 C 399.228 0.055,392.017 0.003,383.205 0.006 L 367.181 0.012 355.856 15.620 C 339.603 38.018,337.026 41.441,336.418 41.441 C 335.913 41.441,335.907 41.219,335.907 20.721 L 335.907 0.000 322.136 0.000 L 308.366 0.000 308.366 3.982 M135.319 3.094 C 123.407 4.982,115.068 15.076,114.375 28.443 C 113.739 40.719,119.352 52.534,133.450 68.597 C 140.018 76.080,168.017 104.403,168.635 104.189 C 169.067 104.040,189.514 83.792,194.354 78.721 C 213.036 59.149,220.054 48.655,222.298 36.937 C 226.668 14.110,208.014 -3.378,188.210 4.982 C 182.544 7.374,180.733 9.058,171.079 20.914 C 169.840 22.436,168.721 23.681,168.592 23.681 C 168.464 23.681,166.416 21.277,164.040 18.340 C 157.194 9.873,154.298 7.276,149.317 5.134 C 144.971 3.266,139.378 2.451,135.319 3.094 M266.205 23.143 C 273.732 25.082,277.424 31.087,275.565 38.368 C 273.879 44.970,270.132 46.780,257.635 47.031 L 251.049 47.164 250.879 42.694 C 250.600 35.327,250.669 23.461,250.996 22.852 C 251.403 22.091,262.981 22.313,266.205 23.143 " stroke="none" fill="#000000" fill-rule="evenodd"></path></g></svg>