<svg id="svg" xmlns="http://www.w3.org/2000/svg" xmlns:xlink="http://www.w3.org/1999/xlink" width="400" height="122.46376811594203" viewBox="0, 0, 400,122.46376811594203"><g id="svgg"><path id="path0" d="M10.688 58.604 L 10.688 106.522 22.917 106.522 L 35.145 106.522 35.145 78.623 L 35.145 50.725 35.553 50.728 C 35.928 50.731,36.775 52.913,46.225 78.219 L 56.489 105.707 63.851 105.754 L 71.212 105.801 71.498 105.120 C 71.655 104.745,76.251 92.577,81.710 78.080 C 87.169 63.582,91.692 51.578,91.761 51.404 C 91.830 51.230,92.041 51.087,92.230 51.087 C 92.565 51.087,92.572 51.730,92.572 78.804 L 92.572 106.522 104.891 106.522 L 117.210 106.522 117.210 87.762 L 117.210 69.002 116.512 67.970 C 105.732 52.043,103.564 35.211,110.507 21.342 C 112.017 18.326,115.142 13.913,116.821 12.427 C 117.092 12.186,117.210 11.870,117.210 11.385 L 117.210 10.688 101.559 10.688 C 89.207 10.688,85.889 10.736,85.818 10.915 C 85.769 11.039,81.162 22.677,75.582 36.775 C 70.001 50.874,65.214 62.960,64.945 63.632 C 64.484 64.780,64.419 64.855,63.882 64.855 L 63.311 64.855 52.613 37.817 L 41.915 10.779 26.302 10.733 L 10.688 10.686 10.688 58.604 M218.297 11.346 C 218.297 11.905,218.471 12.213,219.351 13.209 C 232.320 27.889,232.132 48.510,218.851 68.116 L 218.299 68.931 218.298 87.726 L 218.297 106.522 231.250 106.522 L 244.203 106.522 244.203 90.670 L 244.203 74.819 248.710 74.819 L 253.217 74.819 261.617 90.669 L 270.018 106.519 284.111 106.520 L 298.204 106.522 297.763 105.752 C 296.469 103.488,278.786 70.794,278.836 70.757 C 278.868 70.733,279.466 70.402,280.163 70.021 C 290.229 64.522,295.166 55.191,294.877 42.210 C 294.494 24.955,284.568 14.042,266.576 11.095 C 264.980 10.834,262.001 10.791,241.531 10.737 L 218.297 10.675 218.297 11.346 M298.188 14.305 L 298.188 17.922 299.212 19.492 C 307.776 32.630,307.770 53.886,299.199 66.629 L 298.188 68.131 298.188 76.155 L 298.188 84.179 304.230 95.305 L 310.272 106.431 316.911 106.479 L 323.551 106.526 323.558 94.160 L 323.565 81.793 327.742 76.204 C 330.040 73.130,331.988 70.685,332.071 70.769 C 332.155 70.854,336.844 78.832,342.492 88.496 C 348.140 98.161,352.857 106.171,352.973 106.296 C 353.141 106.476,356.347 106.514,368.251 106.477 L 383.317 106.431 367.546 80.525 C 358.872 66.277,351.605 54.326,351.397 53.967 L 351.019 53.314 352.203 51.702 C 352.854 50.816,359.959 41.225,367.990 30.389 L 382.593 10.688 367.791 10.690 L 352.989 10.692 338.947 30.029 C 324.927 49.336,324.904 49.366,324.228 49.422 L 323.551 49.478 323.551 30.083 L 323.551 10.688 310.870 10.688 L 298.188 10.688 298.188 14.305 M135.692 13.792 C 121.137 16.846,113.569 32.879,118.946 49.267 C 123.049 61.771,133.457 74.492,162.793 102.856 L 167.706 107.606 171.687 103.758 C 209.207 67.487,218.214 54.847,218.187 38.496 C 218.154 17.789,198.252 6.565,181.522 17.816 C 179.238 19.352,176.938 21.787,172.265 27.618 C 169.834 30.652,167.786 33.117,167.714 33.098 C 167.643 33.078,165.618 30.616,163.213 27.627 C 158.257 21.465,157.137 20.252,154.705 18.409 C 149.175 14.219,141.982 12.472,135.692 13.792 M257.830 31.773 C 265.499 33.193,269.197 38.610,267.648 46.158 C 266.305 52.708,261.622 54.826,248.822 54.673 L 244.293 54.620 244.247 43.207 C 244.221 36.929,244.242 31.681,244.295 31.544 C 244.437 31.173,255.607 31.361,257.830 31.773 " stroke="none" fill="#000000" fill-rule="evenodd"></path></g></svg>